<svg id="Capa_2" data-name="Capa 2" xmlns="http://www.w3.org/2000/svg" viewBox="0 0 190 190"><defs><style>.cls-1{fill:#4361ba;}</style></defs><title>iconMD</title><circle class="cls-1" cx="95" cy="95" r="18.05"/><path class="cls-1" d="M96,1a95,95,0,1,0,95,95A95.11,95.11,0,0,0,96,1Zm87,83.43c-5.9-7.91-17.75-14.63-33.47-19.3.83-3.45,1.51-6.82,2-10.08,1.79-11.83,1.12-21.5-1.86-28.44A87.77,87.77,0,0,1,183,84.43ZM138,23.3c6.46,3.73,8.8,14.91,6.42,30.67-.45,3-1.07,6.1-1.84,9.28a181.2,181.2,0,0,0-25.24-4.15A183.16,183.16,0,0,0,101,39.23c12-11.37,23.08-17.38,31-17.38A11.67,11.67,0,0,1,138,23.3ZM57.53,104.55c1.76,3.45,3.63,6.92,5.64,10.4s4.09,6.85,6.22,10.14a168.12,168.12,0,0,1-18.1-3.22A169.08,169.08,0,0,1,57.53,104.55Zm0-17a168,168,0,0,1-6.28-17.36A168,168,0,0,1,69.39,66.9Q66.21,71.8,63.17,77T57.5,87.51ZM61.34,96c2.43-5.11,5.13-10.26,8.08-15.37S75.53,70.54,78.67,66c5.52-.43,11.31-.66,17.33-.66s11.79.23,17.31.66c3.21,4.66,6.32,9.57,9.27,14.68s5.64,10.24,8.07,15.34c-2.43,5.11-5.13,10.24-8.07,15.34s-6.06,10-9.27,14.68c-5.52.43-11.29.66-17.31.66s-11.79-.23-17.31-.66c-3.21-4.66-6.32-9.57-9.27-14.68S63.73,101,61.34,96ZM128.83,115q3-5.18,5.64-10.4a169,169,0,0,1,6.23,17.32,168.07,168.07,0,0,1-18.1,3.22Q125.81,120.17,128.83,115Zm5.64-27.51q-2.66-5.21-5.64-10.4T122.61,66.9a168.1,168.1,0,0,1,18.1,3.22A169.05,169.05,0,0,1,134.48,87.45Zm-26.64-29C104,58.2,100,58.09,96,58.09s-8,.12-11.9.32A168,168,0,0,1,95.95,44.35,169.1,169.1,0,0,1,107.83,58.4Zm-33.13.7a181.1,181.1,0,0,0-25.34,4.17c-5-20.58-3-35.56,4.67-40a11.59,11.59,0,0,1,5.88-1.45c6.33,0,14.67,3.87,23.89,11.22,2.37,1.89,4.75,4,7.12,6.23A181.23,181.23,0,0,0,74.7,59.1ZM53.39,96a183.16,183.16,0,0,0-9.07,24C24,114,12.06,104.83,12.06,96S24,78,44.34,72A181.09,181.09,0,0,0,53.39,96ZM54,168.7c-6.46-3.73-8.8-14.91-6.42-30.67.45-3,1.08-6.1,1.84-9.28a181.2,181.2,0,0,0,25.24,4.15A183.27,183.27,0,0,0,90.9,152.7c-2.37,2.24-4.74,4.33-7.1,6.22C71.34,168.86,60.49,172.43,54,168.7Zm30.14-35.1c3.87.2,7.81.31,11.83.31s8-.11,11.83-.31A169.16,169.16,0,0,1,96,147.6,169.18,169.18,0,0,1,84.17,133.6Zm33.14-.7a181.21,181.21,0,0,0,25.24-4.15c.76,3.18,1.38,6.28,1.84,9.28,2.39,15.76,0,26.94-6.42,30.67s-17.31.17-29.77-9.78c-2.36-1.89-4.74-4-7.1-6.22A183.27,183.27,0,0,0,117.31,132.9ZM138.61,96a183.15,183.15,0,0,0,9.07-24c20.29,6,32.26,15.19,32.26,24s-12,18-32.26,24A183.13,183.13,0,0,0,138.61,96Zm-9.12-81.12C119.69,16,107.94,22.93,96,34.21c-2.57-2.45-5.15-4.72-7.73-6.77-9.38-7.49-18.13-11.75-25.63-12.62a87.58,87.58,0,0,1,66.82.06Zm-87,11.63c-3.87,9.07-3.76,22.68.05,38.61C26.77,69.79,14.91,76.52,9,84.43A87.78,87.78,0,0,1,42.46,26.51ZM9,107.57c5.9,7.91,17.75,14.63,33.47,19.3-.83,3.45-1.51,6.82-2,10.08-1.79,11.83-1.12,21.5,1.86,28.44A87.77,87.77,0,0,1,9,107.57Zm53.64,69.61c7.52-.86,16.26-5.11,25.66-12.61,2.57-2,5.14-4.31,7.7-6.75,2.56,2.44,5.13,4.7,7.7,6.75,9.4,7.5,18.14,11.75,25.66,12.61a87.57,87.57,0,0,1-66.72,0Zm87-11.79c3-6.93,3.65-16.6,1.86-28.44-.49-3.26-1.17-6.63-2-10.08,15.72-4.67,27.56-11.39,33.47-19.3A87.77,87.77,0,0,1,149.67,165.39Z" transform="translate(-1 -1)"/></svg>