<svg xmlns="http://www.w3.org/2000/svg" viewBox="0 0 512 512"><defs><style>.cls-1{fill:#4962f6;}.cls-2{fill:#c1c1c1;}.cls-3{fill:#fff;}</style></defs><title>icon_footballnative</title><g id="Capa_3" data-name="Capa 3"><rect class="cls-1" width="512" height="512" rx="102.5" ry="102.5"/></g><g id="Capa_2" data-name="Capa 2"><circle class="cls-2" cx="256" cy="256" r="38.92"/><path class="cls-2" d="M256,51.17C143.06,51.17,51.17,143.05,51.17,256S143.06,460.84,256,460.84,460.83,368.95,460.83,256,368.94,51.17,256,51.17ZM443.57,231.06c-12.73-17.05-38.27-31.54-72.16-41.62,1.8-7.44,3.25-14.71,4.32-21.73,3.86-25.51,2.41-46.36-4-61.31A189.25,189.25,0,0,1,443.57,231.06ZM346.5,99.25c13.94,8,19,32.15,13.84,66.13-1,6.47-2.32,13.16-4,20a390.69,390.69,0,0,0-54.43-8.95,394.92,394.92,0,0,0-35.09-42.84c25.79-24.51,49.77-37.47,66.89-37.47A25.16,25.16,0,0,1,346.5,99.25ZM173,274.44c3.8,7.44,7.83,14.92,12.17,22.43s8.81,14.78,13.41,21.87a362.5,362.5,0,0,1-39-7A364.56,364.56,0,0,1,173,274.44ZM173,237.68a362.33,362.33,0,0,1-13.54-37.43,362.28,362.28,0,0,1,39.19-7q-6.86,10.57-13.42,21.87T173,237.68ZM181.27,256c5.25-11,11.07-22.12,17.43-33.13,6.5-11.26,13.18-21.8,19.93-31.66,11.91-.92,24.38-1.43,37.37-1.43s25.43.5,37.32,1.42c6.92,10.06,13.62,20.64,20,31.66S325.47,245,330.71,256c-5.24,11-11.05,22.08-17.41,33.09s-13.06,21.6-20,31.66c-11.89.92-24.34,1.42-37.32,1.42s-25.43-.5-37.33-1.42c-6.92-10.06-13.62-20.64-20-31.66Q189,272.23,181.27,256Zm145.52,40.82q6.45-11.18,12.17-22.43a364.45,364.45,0,0,1,13.43,37.35,362.39,362.39,0,0,1-39,7Q320.28,308.11,326.79,296.87ZM339,237.56q-5.73-11.23-12.17-22.43t-13.42-21.87a362.44,362.44,0,0,1,39,7A364.5,364.5,0,0,1,339,237.56Zm-57.45-62.62c-8.34-.43-16.84-.68-25.51-.68s-17.26.25-25.65.69a362.18,362.18,0,0,1,25.54-30.31A364.61,364.61,0,0,1,281.51,174.94Zm-71.44,1.5a390.48,390.48,0,0,0-54.63,9c-10.69-44.37-6.42-76.66,10.06-86.18a25,25,0,0,1,12.68-3.12c13.65,0,31.63,8.33,51.5,24.2,5.11,4.08,10.24,8.59,15.35,13.44A390.75,390.75,0,0,0,210.07,176.44ZM164.13,256a394.92,394.92,0,0,0-19.56,51.81C100.82,294.87,75,275,75,256s25.83-38.88,69.6-51.81A390.46,390.46,0,0,0,164.13,256Zm1.38,156.76c-13.94-8-19-32.15-13.84-66.12,1-6.47,2.32-13.16,4-20a390.69,390.69,0,0,0,54.42,8.95,395.15,395.15,0,0,0,35,42.7c-5.1,4.84-10.22,9.33-15.32,13.4C202.83,413.11,179.43,420.8,165.5,412.74Zm65-75.68c8.34.43,16.84.68,25.51.68s17.17-.25,25.51-.68A364.72,364.72,0,0,1,256,367.25,364.78,364.78,0,0,1,230.49,337.06Zm71.46-1.5a390.7,390.7,0,0,0,54.42-9c1.64,6.85,3,13.55,4,20,5.14,34,.1,58.08-13.84,66.12s-37.33.36-64.19-21.08c-5.1-4.07-10.21-8.57-15.31-13.4A395.16,395.16,0,0,0,301.95,335.56ZM347.88,256a394.9,394.9,0,0,0,19.56-51.8C411.18,217.13,437,237,437,256s-25.81,38.87-69.56,51.8A394.85,394.85,0,0,0,347.88,256ZM328.21,81.09c-21.14,2.49-46.47,17.36-72.15,41.69-5.54-5.28-11.11-10.17-16.66-14.6C219.17,92,200.32,82.83,184.13,80.95a188.84,188.84,0,0,1,144.08.14ZM140.57,106.17c-8.35,19.56-8.11,48.9.11,83.25C106.74,199.49,81.17,214,68.43,231.06A189.26,189.26,0,0,1,140.57,106.17ZM68.43,280.94c12.73,17.05,38.27,31.54,72.16,41.62-1.8,7.44-3.25,14.71-4.32,21.73-3.86,25.52-2.41,46.36,4,61.31A189.25,189.25,0,0,1,68.43,280.94ZM184.08,431c16.2-1.86,35.07-11,55.33-27.2,5.53-4.42,11.08-9.29,16.6-14.54,5.52,5.26,11.07,10.13,16.6,14.54,20.26,16.18,39.12,25.34,55.32,27.2a188.82,188.82,0,0,1-143.85,0Zm187.65-25.42c6.41-14.95,7.87-35.8,4-61.31-1.06-7-2.52-14.29-4.32-21.73,33.89-10.08,59.43-24.57,72.16-41.62A189.25,189.25,0,0,1,371.73,405.61Z"/></g><g id="Capa_4" data-name="Capa 4"><circle class="cls-3" cx="256" cy="256" r="38.92"/><path class="cls-3" d="M256,338c-53.64,0-104.17-7.92-142.3-22.3C73.27,300.45,51,279.24,51,256s22.27-44.44,62.7-59.7C151.83,181.92,202.36,174,256,174s104.17,7.92,142.3,22.3C438.73,211.56,461,232.76,461,256s-22.27,44.45-62.7,59.7C360.17,330.08,309.64,338,256,338Zm0-149c-51.87,0-100.53,7.58-137,21.34C85.32,223,66,239.69,66,256s19.32,33,53,45.66C155.47,315.42,204.13,323,256,323s100.53-7.58,137-21.34c33.68-12.7,53-29.35,53-45.66s-19.32-33-53-45.66C356.53,196.58,307.87,189,256,189Z"/><path class="cls-3" d="M338.8,438.56c-17.83,0-39.59-10-63.34-29.48C243.93,383.26,211.8,343.45,185,297s-45.23-94.18-51.83-134.39c-7-42.64.22-72.53,20.35-84.15s49.62-2.94,83,24.45C268.07,128.74,300.2,168.55,327,215s45.23,94.18,51.83,134.39c7,42.64-.22,72.53-20.35,84.15A38.79,38.79,0,0,1,338.8,438.56ZM173.38,88.41a24.4,24.4,0,0,0-12.38,3c-14.13,8.16-18.88,33.21-13,68.73,6.32,38.47,24.09,84.4,50,129.32s56.83,83.27,87,108c27.84,22.81,51.91,31.22,66,23.06s18.88-33.21,13-68.72c-6.32-38.47-24.09-84.4-50-129.32s-56.83-83.27-87-108C206.17,97.42,187.42,88.41,173.38,88.41Z"/><path class="cls-3" d="M173.2,438.56a38.79,38.79,0,0,1-19.7-5c-20.13-11.62-27.36-41.51-20.35-84.15,6.61-40.21,25-87.94,51.83-134.39s58.95-86.26,90.47-112.08c33.42-27.39,62.92-36.08,83-24.45s27.36,41.51,20.35,84.15c-6.61,40.21-25,87.94-51.83,134.39s-58.95,86.26-90.47,112.08C212.8,428.54,191,438.56,173.2,438.56ZM338.62,88.41c-14,0-32.79,9-53.66,26.11-30.16,24.71-61,63.06-87,108s-43.7,90.85-50,129.32c-5.84,35.52-1.08,60.57,13,68.72s38.2-.25,66-23.06c30.16-24.71,61-63.06,87-108s43.7-90.85,50-129.32c5.84-35.52,1.08-60.57-13-68.73A24.41,24.41,0,0,0,338.62,88.41Z"/><path class="cls-3" d="M256,461C143,461,51,369,51,256S143,51,256,51s205,92,205,205S369,461,256,461Zm0-395C151.23,66,66,151.23,66,256s85.23,190,190,190,190-85.23,190-190S360.77,66,256,66Z"/></g></svg>